<?xml version="1.0" standalone="no"?>
<!DOCTYPE svg PUBLIC "-//W3C//DTD SVG 20010904//EN"
 "http://www.w3.org/TR/2001/REC-SVG-20010904/DTD/svg10.dtd">
<svg version="1.0" xmlns="http://www.w3.org/2000/svg"
 width="4167.000000pt" height="4168.000000pt" viewBox="0 0 4167.000000 4168.000000"
 preserveAspectRatio="xMidYMid meet">

<g transform="translate(0.000000,4168.000000) scale(0.100000,-0.100000)"
fill="#000000" stroke="none">
<path d="M20995 37914 c-170 -25 -349 -88 -917 -320 -433 -177 -1116 -472
-1177 -507 -70 -41 -186 -156 -239 -238 -23 -35 -55 -100 -69 -144 -26 -75
-27 -91 -28 -265 0 -220 18 -330 95 -560 93 -284 -7 -138 1174 -1700 891
-1179 1068 -1409 1103 -1440 47 -42 108 -70 154 -70 56 0 133 45 194 114 30
33 182 234 337 446 657 892 855 1150 1450 1887 460 570 666 1077 594 1457 -30
156 -94 273 -216 397 -106 106 -195 165 -425 279 -324 160 -554 249 -1226 476
-255 86 -486 163 -514 170 -52 15 -237 26 -290 18z m241 -794 c125 -32 440
-153 974 -375 168 -70 333 -142 367 -161 94 -52 177 -134 215 -212 30 -60 33
-75 32 -152 -1 -96 -20 -157 -82 -258 -48 -80 -404 -561 -837 -1132 -190 -250
-447 -591 -573 -757 -125 -166 -230 -302 -233 -302 -4 -1 -35 36 -70 82 -35
45 -224 289 -419 542 -577 745 -881 1149 -1111 1475 -172 243 -183 460 -31
602 66 62 112 87 317 171 99 41 310 129 469 197 228 96 625 256 726 293 37 13
181 6 256 -13z"/>
<path d="M16030 36475 c-394 -59 -690 -134 -1495 -379 -463 -142 -526 -173
-685 -342 -103 -110 -462 -665 -932 -1439 -229 -377 -247 -415 -267 -560 -35
-246 28 -419 243 -669 102 -118 358 -320 527 -415 56 -31 532 -184 2549 -818
917 -288 942 -294 1035 -258 51 19 87 60 111 126 20 54 29 278 44 1109 14 766
30 1199 65 1715 31 470 29 703 -11 973 -59 401 -213 700 -436 848 -191 127
-411 159 -748 109z m142 -819 c84 -18 119 -36 181 -94 56 -53 88 -111 112
-203 20 -74 21 -386 5 -979 -30 -1103 -52 -1828 -56 -1849 -4 -16 -10 -22 -22
-18 -96 27 -1418 430 -1647 502 -419 132 -912 298 -971 328 -252 128 -327 334
-208 570 14 26 53 91 87 145 35 53 132 210 217 347 342 557 478 763 540 819
106 95 293 152 1156 351 440 102 480 107 606 81z"/>
<path d="M25598 36250 c-196 -41 -329 -138 -467 -339 -118 -173 -243 -472
-291 -698 -20 -97 -21 -108 -18 -1873 3 -1678 4 -1777 21 -1820 23 -58 60 -96
114 -116 84 -32 154 -18 658 131 1003 297 1466 425 2095 581 234 58 497 129
585 159 334 110 568 230 768 393 324 263 415 620 258 1015 -78 195 -257 525
-458 841 -126 198 -606 906 -661 973 -69 86 -255 207 -388 253 -195 68 -862
248 -1521 411 -493 122 -523 125 -695 89z m579 -846 c76 -19 329 -84 563 -144
490 -125 722 -191 799 -226 69 -31 168 -132 243 -245 175 -265 636 -1048 679
-1152 81 -196 58 -362 -66 -476 -102 -93 -148 -109 -863 -316 -505 -145 -1933
-545 -1948 -545 -9 0 -14 234 -19 918 -8 961 -2 1703 16 1831 35 248 174 390
386 391 51 0 112 -10 210 -36z"/>
<path d="M17716 36158 c-3 -13 -18 -408 -35 -878 -63 -1723 -151 -4119 -159
-4270 -4 -93 -11 -154 -17 -153 -6 0 -1093 352 -2418 782 -1324 430 -2413 781
-2420 781 -11 0 -87 -91 -87 -105 0 -4 2496 -3593 2983 -4289 15 -22 17 -30 7
-36 -7 -4 -1138 -387 -2514 -850 -1375 -464 -2507 -846 -2514 -850 -9 -4 28
-34 103 -83 l117 -77 832 -274 c1403 -463 2242 -737 2956 -964 720 -230 860
-272 903 -272 77 0 181 29 277 76 91 45 104 56 281 233 102 102 295 305 430
451 134 146 325 348 425 448 235 237 274 306 244 431 -19 79 -71 149 -275 371
-251 273 -1157 1292 -1163 1308 -2 7 1091 189 1543 257 352 53 440 71 509 103
85 40 128 81 159 150 40 90 43 164 13 412 -14 118 -32 294 -41 390 -21 227
-84 1164 -79 1169 3 4 503 -210 904 -387 118 -52 321 -145 451 -208 130 -62
264 -121 300 -130 116 -30 207 -1 286 91 21 25 92 136 157 248 243 415 562
917 797 1254 55 79 115 174 132 211 30 62 32 75 32 173 0 104 -1 107 -42 190
-23 46 -79 136 -124 199 -229 320 -699 992 -1384 1975 -1005 1444 -1060 1522
-1260 1790 -167 223 -277 355 -296 355 -5 0 -11 -10 -13 -22z m740 -1693
c1232 -1754 1849 -2641 1865 -2682 15 -39 13 -149 -4 -203 -18 -58 -425 -730
-840 -1387 l-26 -41 -378 200 c-639 338 -957 515 -1008 559 -36 32 -81 124
-94 192 -10 58 11 710 94 2886 19 497 35 920 35 940 0 22 4 31 9 26 5 -6 161
-226 347 -490z m-3777 -3126 c1670 -545 2317 -761 2412 -807 182 -87 244 -181
278 -422 24 -165 54 -654 55 -890 1 -206 -2 -255 -17 -310 -27 -99 -63 -165
-118 -214 -120 -108 -301 -155 -864 -226 -363 -47 -487 -38 -637 42 -111 59
-164 124 -444 543 -289 434 -542 800 -1059 1535 -649 923 -647 920 -687 1013
-40 93 -42 97 -31 97 3 0 504 -162 1112 -361z m852 -3845 c54 -26 84 -52 195
-170 243 -257 989 -1098 989 -1114 0 -14 -616 -669 -875 -932 -228 -230 -237
-238 -293 -254 -40 -11 -85 -15 -140 -12 -71 3 -130 19 -447 122 -1485 480
-3234 1057 -3242 1069 -9 15 -21 107 -15 113 7 7 1356 464 2557 865 l1045 349
80 -3 c65 -3 94 -9 146 -33z"/>
<path d="M24295 35938 c-49 -38 -103 -82 -119 -96 -29 -28 -1286 -1700 -1932
-2572 -719 -970 -979 -1329 -1004 -1387 -22 -52 -24 -72 -24 -188 0 -97 4
-145 18 -190 26 -87 168 -371 386 -770 105 -192 243 -453 306 -580 70 -141
131 -249 156 -279 76 -89 173 -115 302 -81 33 9 190 73 350 144 331 146 509
223 1135 486 244 102 444 185 445 183 4 -5 -206 -1275 -265 -1603 -68 -382
-72 -475 -21 -577 59 -120 140 -160 449 -224 364 -76 1505 -371 1503 -389 -2
-23 -735 -828 -1024 -1125 -204 -209 -231 -251 -231 -355 1 -112 21 -145 260
-420 298 -344 609 -729 880 -1090 156 -207 198 -250 282 -291 127 -63 228 -51
638 71 504 151 1086 322 2095 615 1088 316 1453 423 2015 593 l410 124 3 75
c3 69 1 75 -20 84 -13 6 -1097 420 -2410 920 -1314 500 -2388 913 -2388 917 0
5 682 926 1515 2047 833 1122 1515 2042 1515 2045 0 3 -16 30 -37 60 -24 38
-41 54 -52 51 -9 -3 -1141 -332 -2516 -732 -1375 -400 -2506 -729 -2512 -731
-10 -4 -13 536 -15 2665 l-3 2670 -90 -70z m-252 -1045 c8 -5 7 -2199 -2
-3178 l-6 -670 -29 -58 c-15 -32 -51 -82 -80 -111 -45 -46 -75 -63 -245 -140
-107 -48 -341 -150 -520 -226 -707 -300 -826 -349 -832 -337 -4 7 -105 194
-224 417 -120 223 -286 537 -368 699 l-149 294 4 81 c3 64 11 96 35 146 36 78
315 456 1639 2226 l654 875 58 -7 c31 -3 60 -8 65 -11z m4507 -3487 c0 -11
-1989 -2671 -2120 -2835 -111 -140 -191 -216 -269 -254 -61 -30 -72 -32 -166
-31 -115 2 -184 16 -613 129 -617 163 -793 246 -868 408 -68 151 -58 322 52
866 80 395 113 481 234 602 72 74 134 113 224 146 23 8 175 50 338 94 618 165
1221 339 2823 815 139 41 220 56 338 62 15 1 27 0 27 -2z m-1365 -4209 c748
-282 2396 -907 2974 -1128 13 -5 22 -11 20 -13 -9 -9 -2646 -785 -3384 -996
-259 -74 -327 -90 -361 -85 -67 10 -155 58 -210 116 -73 77 -292 337 -643 764
-167 204 -322 391 -343 416 l-38 47 337 319 c440 416 735 688 805 742 40 30
93 41 183 37 89 -4 95 -6 660 -219z"/>
<path d="M11470 31890 c-102 -27 -242 -98 -342 -172 -108 -80 -478 -451 -643
-643 -223 -261 -770 -950 -804 -1014 -80 -151 -111 -301 -111 -540 1 -460 68
-1831 96 -1946 17 -74 90 -223 141 -290 112 -145 310 -242 613 -297 96 -18
156 -21 360 -22 l245 -1 400 123 c220 68 731 225 1135 348 1511 463 1807 555
1867 584 146 72 177 186 94 343 -16 29 -199 311 -408 627 -551 835 -748 1143
-1063 1671 -98 163 -201 332 -231 375 -305 454 -604 726 -912 832 -92 32 -114
36 -232 39 -106 3 -144 -1 -205 -17z m378 -910 c128 -60 179 -126 619 -800
306 -470 1065 -1652 1061 -1654 -3 -3 -678 -218 -1278 -408 -415 -131 -897
-276 -1143 -343 -221 -61 -320 -74 -412 -55 -195 40 -297 178 -310 419 -30
549 -48 1003 -49 1226 l-1 270 27 57 c57 123 174 265 622 758 317 350 437 468
512 508 133 69 237 76 352 22z"/>
<path d="M30255 31770 c-279 -38 -580 -226 -856 -536 -147 -164 -243 -292
-422 -559 -392 -585 -677 -985 -1421 -1990 -114 -154 -221 -308 -238 -342 -72
-147 -38 -247 110 -322 51 -26 -4 -6 1107 -411 1802 -657 2198 -799 2275 -812
114 -19 510 -16 630 5 277 48 472 147 573 289 58 81 111 179 131 243 20 66
109 866 156 1415 39 460 50 661 39 764 -11 109 -47 243 -85 319 -25 48 -461
664 -633 892 -307 409 -645 783 -806 892 -183 123 -381 177 -560 153z m175
-926 c107 -51 172 -114 405 -394 454 -546 635 -782 696 -905 l44 -89 -1 -160
c-1 -162 -10 -267 -64 -796 -16 -157 -36 -363 -45 -459 -9 -95 -24 -200 -34
-232 -64 -204 -226 -301 -451 -269 -138 19 -665 204 -1845 647 -418 157 -770
289 -782 294 -21 8 12 56 465 686 1100 1529 1158 1605 1287 1670 75 39 93 42
180 40 66 -2 92 -8 145 -33z"/>
<path d="M10270 25770 c-177 -17 -324 -41 -725 -120 -220 -43 -435 -84 -477
-91 l-78 -12 -20 -55 c-12 -30 -17 -58 -13 -62 4 -4 159 -51 343 -105 444
-129 623 -183 875 -265 315 -103 631 -201 1240 -385 1179 -357 1950 -607 7230
-2345 1414 -466 2296 -740 2376 -740 106 0 1269 341 4804 1410 2415 730 4066
1223 5030 1502 477 138 876 254 1508 439 l388 114 -7 55 c-4 30 -7 56 -8 57
-1 2 -72 12 -157 23 -161 20 -254 36 -689 119 -588 111 -923 127 -1289 61 -60
-11 -193 -45 -297 -75 -619 -183 -3728 -1158 -8021 -2516 -695 -219 -1270
-399 -1278 -399 -8 0 -558 183 -1223 406 -3957 1330 -7528 2526 -8192 2744
-552 180 -627 202 -778 226 -119 18 -414 26 -542 14z"/>
<path d="M7654 25461 c-23 -10 -50 -32 -61 -47 -31 -43 -53 -129 -53 -205 l0
-67 48 -16 c26 -8 2839 -911 6252 -2006 3413 -1095 6223 -1997 6245 -2004 25
-8 34 -16 25 -19 -8 -2 -152 -19 -320 -37 -2579 -269 -4507 -766 -6154 -1586
-246 -122 -639 -335 -632 -341 2 -2 102 23 222 56 3302 902 6668 1238 9944
990 1559 -117 3068 -355 4630 -729 242 -58 697 -174 804 -206 87 -25 79 -38
113 159 5 26 1 29 -153 103 -1110 531 -2227 899 -3550 1168 -891 181 -1762
301 -3004 414 -82 7 -84 8 -50 19 28 10 10086 2963 11730 3445 245 72 449 134
454 138 11 11 -60 225 -92 278 -29 46 -73 72 -121 72 -95 0 -438 -97 -4050
-1145 -4003 -1161 -5489 -1590 -7421 -2145 -597 -171 -1134 -327 -1195 -347
-101 -32 -117 -35 -195 -30 -47 3 -130 15 -185 26 -85 17 -1049 304 -2210 657
-931 284 -2251 700 -5410 1709 -902 288 -2036 648 -2520 800 -902 284 -2116
668 -2535 802 -129 41 -268 83 -309 94 -95 24 -193 24 -247 0z"/>
<path d="M25368 19352 c-31 -4 -30 -1 -133 -247 -97 -233 -195 -542 -195 -617
0 -13 18 -79 39 -145 73 -221 95 -379 111 -783 13 -331 48 -911 105 -1770 25
-366 57 -836 70 -1045 52 -785 78 -1158 150 -2175 161 -2262 226 -3305 245
-3915 11 -363 -1 -810 -27 -1014 -17 -132 -25 -462 -12 -476 4 -3 18 -1 32 6
20 9 39 43 88 158 181 426 309 879 368 1301 49 353 56 458 55 865 0 535 -41
1179 -259 4150 -170 2306 -270 3773 -260 3783 2 3 67 -58 142 -135 138 -141
191 -187 249 -216 31 -16 32 -15 60 14 l29 30 -39 152 c-21 84 -77 271 -126
417 -86 260 -147 421 -408 1085 -71 182 -146 373 -166 425 -42 112 -78 158
-118 152z"/>
<path d="M24003 18898 c-34 -44 -178 -404 -246 -613 -77 -239 -76 -231 -29
-376 93 -283 111 -394 122 -759 23 -754 94 -1905 265 -4245 171 -2343 187
-2661 149 -2983 -18 -160 -54 -308 -89 -368 -59 -100 -355 -284 -575 -358
-172 -57 -258 -64 -532 -46 -553 38 -872 134 -1100 333 -32 27 -58 54 -58 59
0 11 135 75 690 328 239 109 452 206 473 216 42 20 61 50 229 369 53 99 121
220 151 269 37 58 59 104 63 134 7 46 6 47 -42 90 -129 114 -400 267 -654 370
-166 67 -491 174 -660 218 -166 43 -366 78 -570 100 -188 21 -666 23 -875 5
-669 -59 -1316 -199 -1643 -357 -180 -87 -186 -94 -320 -399 -41 -93 -99 -225
-128 -293 -30 -67 -65 -161 -79 -209 l-25 -86 22 -26 c13 -14 25 -29 29 -34 3
-4 53 15 111 43 147 70 269 100 439 107 165 7 267 -6 406 -52 174 -58 315
-137 508 -284 100 -76 322 -284 376 -353 l29 -36 -122 -52 c-68 -29 -262 -109
-433 -180 -377 -155 -1646 -699 -1877 -804 -549 -249 -1006 -509 -1345 -765
-357 -270 -539 -453 -988 -991 -312 -375 -476 -559 -571 -641 -261 -226 -478
-358 -723 -439 -308 -103 -601 -92 -789 30 -152 98 -273 282 -328 499 -95 375
-22 752 351 1801 136 383 208 600 254 764 17 60 33 111 36 114 11 11 249 14
336 3 182 -21 292 -59 425 -147 105 -69 174 -145 281 -307 121 -185 111 -176
145 -125 88 133 150 392 165 682 14 301 -69 477 -311 658 -101 75 -295 171
-401 198 -273 69 -603 67 -900 -4 -655 -159 -1405 -677 -2209 -1526 -232 -245
-275 -295 -745 -850 -766 -905 -999 -1162 -1231 -1363 -265 -230 -558 -409
-765 -468 -43 -13 -115 -23 -185 -26 -204 -10 -361 46 -485 171 -178 180 -270
402 -282 681 -15 331 78 707 387 1570 107 300 211 607 249 741 l21 72 43 6
c68 10 144 51 197 107 109 114 201 360 255 682 3 16 1 26 -5 22 -5 -3 -48 -64
-95 -134 -128 -194 -208 -254 -314 -236 -121 20 -188 251 -156 531 27 226 78
432 209 834 64 197 92 297 84 305 -8 8 -127 -200 -192 -336 -141 -294 -228
-593 -272 -929 -11 -92 -15 -178 -12 -325 4 -186 6 -206 31 -278 29 -84 43
-110 94 -174 l33 -41 -134 -274 c-326 -662 -517 -1207 -601 -1711 -57 -347
-59 -616 -4 -889 72 -362 282 -710 565 -935 202 -162 352 -220 594 -230 194
-8 326 20 515 112 324 156 638 455 1175 1120 501 619 997 1182 1365 1551 502
503 879 792 1320 1009 234 115 469 198 658 231 l37 6 -113 -228 c-363 -735
-557 -1290 -642 -1844 -25 -162 -31 -507 -11 -660 58 -450 240 -791 568 -1066
168 -141 279 -197 468 -236 124 -26 344 -21 463 11 159 42 343 138 517 269
109 82 352 329 540 547 226 263 693 766 901 970 265 260 488 439 714 572 163
97 548 297 803 418 321 152 574 262 972 422 860 346 1442 606 2081 931 3 1 80
-60 171 -136 352 -294 704 -551 852 -622 230 -110 459 -154 936 -182 270 -15
339 -13 456 17 139 35 243 89 356 184 443 372 767 1050 887 1851 41 274 52
431 58 795 4 319 1 424 -26 920 -41 736 -77 1281 -161 2480 -114 1621 -174
2564 -164 2574 2 3 71 -61 152 -141 147 -147 219 -198 280 -198 21 0 22 4 22
73 0 41 -9 107 -19 148 -31 119 -691 1871 -746 1981 -35 68 -79 96 -102 66z
m-2593 -8179 c296 -27 628 -116 688 -184 29 -34 28 -55 -1 -55 -24 0 -635
-307 -734 -369 l-52 -32 -118 105 c-142 127 -280 235 -510 399 -94 67 -168
125 -165 129 11 11 442 26 617 21 88 -2 212 -9 275 -14z"/>
<path d="M21588 16665 c-124 -47 -235 -177 -318 -373 -31 -73 -150 -541 -231
-909 -23 -106 -44 -192 -45 -190 -2 2 -15 59 -29 127 -84 403 -212 713 -373
907 -101 121 -289 222 -414 223 -33 0 -41 -6 -84 -61 -78 -102 -148 -221 -174
-297 l-25 -73 30 -57 c35 -68 116 -152 205 -213 57 -38 72 -44 117 -43 40 0
63 7 103 32 28 18 57 32 64 32 6 0 31 -19 53 -42 61 -63 197 -357 298 -648 45
-131 105 -363 105 -410 0 -63 18 -109 46 -116 31 -8 54 12 99 87 71 115 129
323 220 784 73 366 117 512 201 663 42 74 81 102 142 102 64 0 105 -24 166
-98 30 -37 66 -78 81 -92 l27 -25 39 44 c72 80 117 215 107 319 -9 90 -128
252 -225 304 -60 33 -135 43 -185 23z"/>
<path d="M26759 16667 c-132 -37 -240 -147 -324 -330 -30 -66 -145 -372 -145
-387 0 -3 49 4 109 16 165 33 302 45 523 45 186 0 539 -25 582 -40 15 -6 7
-16 -51 -59 -110 -82 -238 -153 -558 -312 -276 -136 -470 -251 -570 -335 l-30
-25 37 0 c63 0 267 30 383 56 274 61 631 188 740 262 275 186 511 462 624 728
32 75 81 235 81 263 0 25 -223 76 -470 107 -171 22 -864 30 -931 11z"/>
<path d="M28707 16435 c-112 -235 -169 -374 -199 -484 l-20 -77 41 -150 c67
-246 79 -309 106 -544 84 -744 165 -1289 430 -2885 254 -1535 320 -1938 355
-2177 99 -684 166 -1360 190 -1938 7 -146 15 -323 18 -394 l7 -130 52 100
c147 281 243 608 289 984 22 182 30 701 15 953 -35 573 -114 1181 -287 2207
-47 278 -127 757 -179 1065 -127 755 -229 1470 -250 1750 l-7 80 39 -45 c173
-203 227 -251 331 -290 l52 -20 0 44 c0 60 -25 198 -50 273 -11 34 -147 349
-303 700 -156 351 -337 761 -403 910 -65 150 -121 273 -124 273 -3 0 -49 -93
-103 -205z"/>
<path d="M30313 16405 c4 -109 7 -264 7 -344 l0 -146 107 -70 c132 -86 317
-267 415 -405 79 -111 201 -344 252 -482 100 -270 162 -538 200 -871 8 -71 16
-131 19 -133 8 -8 48 143 63 241 31 200 -1 660 -65 920 -164 667 -483 1157
-945 1450 l-59 38 6 -198z"/>
<path d="M16724 15476 c-65 -30 -115 -74 -168 -150 -97 -136 -153 -287 -231
-621 -25 -110 -61 -263 -79 -340 -19 -77 -42 -184 -51 -239 -10 -57 -21 -93
-25 -85 -4 8 -31 106 -60 219 -29 113 -70 256 -92 318 -106 308 -289 559 -472
647 -72 35 -199 64 -229 52 -21 -8 -150 -195 -193 -280 -47 -93 -54 -151 -23
-214 28 -59 112 -144 199 -202 63 -41 67 -43 131 -39 51 3 76 10 107 30 l40
27 45 -29 c49 -31 60 -50 177 -315 128 -288 215 -564 241 -763 12 -87 13 -89
44 -101 17 -6 34 -11 38 -11 13 0 98 156 128 235 43 111 82 265 128 510 97
514 171 742 276 852 81 84 132 71 272 -67 55 -55 105 -100 110 -100 16 0 85
120 110 192 36 103 30 194 -18 273 -117 194 -263 267 -405 201z"/>
<path d="M10572 15230 c-62 -13 -159 -68 -193 -109 -70 -85 -126 -231 -143
-373 l-7 -58 94 49 c148 77 246 78 328 4 l39 -35 0 -78 c0 -72 -3 -85 -40
-157 -70 -136 -187 -288 -459 -598 -118 -135 -182 -227 -168 -241 7 -8 139 78
237 155 232 181 462 470 591 745 76 164 82 185 87 358 4 146 3 161 -18 202
-40 84 -126 135 -238 141 -37 2 -86 0 -110 -5z"/>
<path d="M18284 15190 c-160 -34 -267 -156 -319 -364 -30 -124 -36 -166 -23
-166 6 0 47 18 90 41 147 75 268 73 338 -8 32 -35 32 -38 28 -112 -4 -60 -12
-89 -38 -141 -66 -132 -158 -254 -365 -490 -152 -173 -284 -345 -273 -355 11
-11 115 51 207 125 201 160 359 327 473 501 178 271 251 461 250 649 -2 171
-43 252 -154 300 -55 24 -154 33 -214 20z"/>
<path d="M27314 14743 c-69 -155 -116 -292 -213 -623 -33 -113 -83 -269 -110
-347 -128 -364 -207 -746 -247 -1197 -22 -253 3 -433 83 -594 66 -133 162
-211 291 -233 59 -11 62 -10 124 23 34 18 93 62 130 97 159 149 252 358 327
730 39 192 39 187 0 164 -51 -30 -96 -90 -161 -217 -75 -147 -138 -219 -209
-240 -55 -17 -87 -11 -153 28 -61 35 -124 108 -156 180 -112 247 -68 553 195
1355 176 536 215 681 215 793 0 66 -17 101 -61 124 l-29 15 -26 -58z"/>
<path d="M33690 14559 c-1097 -346 -3254 -1124 -3646 -1314 l-150 -73 -21 -74
c-20 -69 -64 -260 -78 -340 l-7 -38 103 46 c823 361 1857 746 3309 1231 338
113 619 209 623 213 8 7 137 405 137 422 0 12 4 13 -270 -73z"/>
<path d="M11847 14369 c-132 -18 -244 -69 -314 -141 -47 -49 -303 -467 -303
-495 0 -30 38 -33 262 -22 419 22 967 -7 1085 -56 43 -18 73 -43 73 -61 0 -11
-102 -78 -260 -169 -36 -21 -209 -114 -385 -207 -477 -254 -631 -346 -701
-419 l-29 -30 55 7 c96 12 773 206 978 280 164 60 250 113 381 238 201 192
477 555 566 741 47 100 48 105 23 155 -41 81 -177 130 -461 166 -145 18 -864
28 -970 13z"/>
<path d="M14362 14232 c-57 -61 -210 -385 -291 -617 -122 -348 -184 -744 -160
-1030 16 -195 56 -303 141 -380 54 -48 70 -52 193 -46 160 9 285 194 391 580
32 117 45 229 26 217 -5 -3 -49 -63 -97 -133 -83 -119 -164 -211 -203 -232
-10 -5 -43 -3 -82 5 -55 11 -71 19 -100 52 -59 66 -73 116 -78 293 -7 253 37
474 187 944 80 253 113 367 106 373 -2 3 -17 -9 -33 -26z"/>
<path d="M22404 14224 c-58 -16 -750 -265 -1394 -502 -556 -205 -2463 -916
-2591 -967 -32 -12 -153 -311 -174 -427 l-7 -37 58 23 c33 13 253 103 489 200
1090 450 2590 1033 3330 1296 191 68 217 92 287 255 40 96 67 177 56 174 -2 0
-26 -7 -54 -15z"/>
<path d="M9557 13506 c-88 -32 -120 -77 -237 -336 -152 -336 -263 -669 -351
-1055 -30 -127 -33 -156 -33 -305 -1 -181 11 -243 58 -325 56 -95 130 -129
281 -129 94 0 122 4 190 28 317 110 466 366 469 806 1 214 -16 270 -135 430
-76 104 -169 198 -270 274 l-77 57 35 96 c34 96 99 258 146 363 19 43 22 61
15 83 -11 31 -31 34 -91 13z m-204 -1058 c82 -43 311 -192 356 -232 35 -31 81
-106 81 -132 0 -34 -103 -122 -214 -183 -127 -70 -197 -98 -285 -113 -63 -11
-75 -10 -99 4 -53 32 -67 72 -66 188 0 61 8 138 18 185 25 113 105 325 122
325 3 0 43 -19 87 -42z"/>
<path d="M33679 13007 c-60 -23 -96 -54 -147 -131 -64 -95 -108 -203 -137
-335 -30 -136 -43 -276 -51 -583 -3 -136 -9 -262 -13 -279 -6 -29 -13 -21
-145 176 -212 317 -325 449 -465 544 -81 55 -149 88 -232 111 -177 49 -280 4
-324 -140 -9 -31 -19 -110 -22 -181 l-6 -125 59 -34 c32 -18 99 -60 148 -93
134 -90 207 -121 286 -121 47 -1 77 5 108 20 l42 22 56 -62 c71 -79 177 -236
247 -367 48 -89 190 -395 218 -468 13 -33 22 -21 70 88 80 185 111 363 128
721 15 307 21 382 37 500 35 248 72 318 172 328 69 6 124 -14 265 -100 64 -39
119 -69 122 -66 2 2 16 58 31 124 31 146 30 233 -4 281 -29 41 -155 125 -228
153 -74 27 -168 35 -215 17z"/>
<path d="M30477 11279 c9 -148 11 -501 3 -620 l-4 -77 94 -63 c79 -52 156
-124 460 -429 382 -383 442 -435 675 -581 144 -90 435 -238 767 -388 575 -260
812 -391 1043 -575 89 -72 259 -239 318 -314 l46 -59 -137 -125 c-438 -401
-612 -536 -1074 -835 -1028 -666 -2017 -1279 -2318 -1436 -352 -185 -598 -193
-775 -26 -104 98 -143 213 -152 444 -7 180 6 278 77 605 62 285 78 385 86 536
10 176 -1 183 -64 42 -140 -309 -221 -608 -278 -1018 -32 -231 -39 -399 -25
-600 18 -267 51 -419 126 -579 147 -309 350 -431 651 -392 181 24 358 101 750
327 513 295 995 617 1849 1238 733 531 906 666 1081 841 175 174 307 363 358
513 90 264 117 588 71 831 -48 251 -144 430 -309 578 -247 222 -545 400 -1076
643 -484 222 -626 290 -781 376 -188 105 -372 227 -499 331 l-95 78 239 5 240
5 -142 98 c-189 131 -458 302 -847 537 -176 106 -330 200 -343 208 l-23 15 8
-134z"/>
<path d="M27406 11159 c-3 -13 -31 -145 -62 -294 -30 -148 -66 -318 -78 -376
l-23 -106 134 -269 c74 -148 197 -388 273 -534 339 -652 542 -1098 646 -1422
l28 -87 -25 -27 c-91 -99 -499 -450 -746 -641 -1312 -1018 -3204 -1949 -5621
-2764 -330 -111 -583 -206 -602 -226 -11 -11 581 6 720 21 80 9 312 39 515 66
204 27 444 56 535 65 91 8 176 17 190 20 14 3 124 12 245 20 409 30 492 47
804 172 1002 399 1971 954 2956 1692 291 218 578 452 765 625 180 166 306 335
359 482 110 301 175 643 188 979 l6 160 -36 136 c-94 354 -265 730 -494 1083
-35 54 -62 101 -59 104 3 3 92 -9 197 -27 106 -17 194 -30 196 -27 7 6 -82
136 -173 252 -101 131 -201 245 -437 502 -162 176 -238 261 -388 436 -4 5 -10
-2 -13 -15z"/>
<path d="M16167 10955 c-15 -18 -59 -100 -98 -182 -70 -145 -249 -533 -249
-538 0 -1 73 -51 163 -111 89 -60 272 -191 406 -292 l244 -183 29 28 c16 15
45 52 64 80 57 86 259 492 284 571 21 69 22 76 7 106 -29 62 -495 392 -704
499 -61 31 -113 57 -115 56 -2 0 -15 -15 -31 -34z"/>
<path d="M10517 10829 c-28 -47 -42 -76 -293 -616 l-33 -73 77 -58 c42 -32
127 -92 187 -132 146 -97 273 -190 365 -266 88 -72 167 -124 190 -124 22 0
142 183 224 340 64 125 108 225 151 352 l24 67 -52 47 c-130 117 -362 281
-592 419 -100 60 -141 79 -176 83 -46 4 -47 4 -72 -39z"/>
<path d="M21407 8239 c-106 -25 -211 -102 -375 -276 -212 -225 -301 -349 -350
-485 -22 -61 -26 -91 -27 -178 0 -98 2 -109 30 -159 42 -75 119 -140 241 -200
69 -35 102 -56 97 -64 -4 -7 -42 -66 -86 -132 -99 -152 -207 -369 -251 -507
-54 -164 -70 -263 -71 -428 0 -128 3 -151 21 -191 31 -66 85 -121 179 -184
112 -74 207 -98 395 -97 326 0 635 81 903 234 111 64 304 202 369 265 36 35
66 93 48 93 -5 0 -133 -32 -286 -70 -324 -82 -489 -114 -674 -131 -164 -14
-430 -6 -518 15 -71 18 -166 63 -201 97 -63 60 -77 167 -37 282 27 75 152 269
263 407 153 191 406 430 606 573 110 79 161 129 207 207 74 123 127 339 106
424 l-7 27 -41 -23 c-23 -13 -114 -93 -203 -179 -172 -167 -223 -207 -306
-239 -43 -18 -65 -20 -114 -15 -79 10 -169 38 -226 72 -64 38 -139 126 -139
162 0 34 60 135 123 206 107 122 233 125 302 7 17 -29 33 -51 36 -49 4 1 46
54 93 117 128 170 141 235 69 344 -54 81 -88 96 -176 75z"/>
<path d="M18713 6989 c-142 -55 -243 -222 -277 -462 l-7 -47 28 12 c15 6 35
17 43 24 56 44 186 81 249 69 53 -10 109 -45 133 -83 16 -27 20 -45 16 -101
-7 -133 -119 -304 -431 -661 -118 -135 -259 -312 -252 -318 9 -10 133 67 227
142 252 200 457 453 593 731 85 174 100 235 100 395 0 121 -2 140 -23 183 -28
56 -80 101 -141 122 -65 22 -193 19 -258 -6z"/>
<path d="M11966 6279 c-27 -21 -44 -54 -191 -375 l-87 -192 -101 79 c-169 131
-629 441 -690 465 -28 11 -128 -171 -274 -501 -46 -104 -93 -205 -104 -224
-11 -19 -16 -37 -12 -41 4 -4 71 -47 148 -95 143 -89 397 -268 563 -396 106
-82 87 -86 170 36 26 38 94 163 152 277 l106 208 212 -139 c116 -77 287 -196
379 -264 93 -68 173 -126 179 -130 11 -6 113 140 208 299 56 95 141 280 172
373 l27 84 -34 28 c-107 90 -251 198 -374 282 -133 90 -396 247 -414 247 -5 0
-20 -9 -35 -21z"/>
<path d="M27951 6136 c-64 -99 -83 -149 -200 -521 -171 -548 -224 -757 -256
-1017 -20 -164 -20 -444 0 -523 72 -281 306 -394 472 -229 132 132 225 339
278 623 17 97 19 125 5 116 -5 -3 -52 -66 -104 -139 -52 -72 -118 -158 -147
-190 -51 -56 -54 -58 -92 -52 -119 19 -209 125 -238 282 -17 90 -5 259 30 426
29 137 55 219 196 628 82 238 105 345 112 523 3 81 3 147 -1 147 -3 0 -28 -33
-55 -74z"/>
<path d="M17875 5613 c-940 -336 -1858 -675 -3120 -1151 l-709 -267 -52 -120
c-50 -114 -94 -250 -94 -289 0 -27 27 -18 413 141 1062 437 2438 975 3385
1323 l253 94 45 82 c67 124 119 266 96 263 -4 0 -101 -34 -217 -76z"/>
</g>
</svg>
